<svg xmlns="http://www.w3.org/2000/svg" xmlns:xlink="http://www.w3.org/1999/xlink" viewBox="0 0 217.05 28.31"><defs><style>.cls-1{fill:none;}.cls-2{fill:#fff;}.cls-3{clip-path:url(#clip-path);}</style><clipPath id="clip-path" transform="translate(-0.42 -0.56)"><rect class="cls-1" width="42.23" height="29.44"/></clipPath></defs><g id="Layer_2" data-name="Layer 2"><g id="Layer_1-2" data-name="Layer 1"><path class="cls-2" d="M52.35,2.21H58v1H53.6V6.59h3.75v1H53.6v4.41H52.35Z" transform="translate(-0.42 -0.56)"/><path class="cls-2" d="M58.92,8.42a4.6,4.6,0,0,1,.28-1.63,3.85,3.85,0,0,1,.74-1.21A3.09,3.09,0,0,1,61,4.83a3.4,3.4,0,0,1,2.56,0,3.06,3.06,0,0,1,1.07.75,3.87,3.87,0,0,1,.75,1.21,4.6,4.6,0,0,1,.27,1.63A4.49,4.49,0,0,1,65.4,10a3.61,3.61,0,0,1-.75,1.2,3,3,0,0,1-1.07.74A3.28,3.28,0,0,1,61,12a3.07,3.07,0,0,1-1.08-.74A3.59,3.59,0,0,1,59.2,10,4.49,4.49,0,0,1,58.92,8.42Zm1.28,0a4,4,0,0,0,.15,1.14,2.68,2.68,0,0,0,.43.88,2,2,0,0,0,.66.57,1.91,1.91,0,0,0,.86.2,1.87,1.87,0,0,0,.85-.2,2,2,0,0,0,.67-.57,2.68,2.68,0,0,0,.43-.88,4,4,0,0,0,.15-1.14,4.16,4.16,0,0,0-.15-1.15,2.73,2.73,0,0,0-.43-.89,2,2,0,0,0-.67-.58,1.87,1.87,0,0,0-.85-.2,1.81,1.81,0,0,0-1.52.78,2.73,2.73,0,0,0-.43.89A4.16,4.16,0,0,0,60.2,8.42Z" transform="translate(-0.42 -0.56)"/><path class="cls-2" d="M67,8.42a4.39,4.39,0,0,1,.28-1.63,3.68,3.68,0,0,1,.74-1.21,3.15,3.15,0,0,1,1.07-.75,3.28,3.28,0,0,1,1.28-.25,3.33,3.33,0,0,1,1.29.25,3.15,3.15,0,0,1,1.07.75,3.68,3.68,0,0,1,.74,1.21,4.39,4.39,0,0,1,.28,1.63A4.28,4.28,0,0,1,73.51,10a3.44,3.44,0,0,1-.74,1.2A3.12,3.12,0,0,1,71.7,12a3.34,3.34,0,0,1-1.29.26A3.29,3.29,0,0,1,69.13,12a3.12,3.12,0,0,1-1.07-.74,3.44,3.44,0,0,1-.74-1.2A4.28,4.28,0,0,1,67,8.42Zm1.27,0a4,4,0,0,0,.15,1.14,2.89,2.89,0,0,0,.43.88,2.15,2.15,0,0,0,.67.57,1.87,1.87,0,0,0,.85.2,1.91,1.91,0,0,0,.86-.2,2.15,2.15,0,0,0,.67-.57,2.87,2.87,0,0,0,.42-.88,4,4,0,0,0,.15-1.14,4.16,4.16,0,0,0-.15-1.15,2.93,2.93,0,0,0-.42-.89,2.05,2.05,0,0,0-.67-.58,1.91,1.91,0,0,0-.86-.2,1.87,1.87,0,0,0-.85.2,2.05,2.05,0,0,0-.67.58,3,3,0,0,0-.43.89A4.16,4.16,0,0,0,68.31,8.42Z" transform="translate(-0.42 -0.56)"/><path class="cls-2" d="M75.16,8.42a4.75,4.75,0,0,1,.26-1.6,4,4,0,0,1,.7-1.21,3.09,3.09,0,0,1,1-.76,2.77,2.77,0,0,1,1.2-.27,2.47,2.47,0,0,1,1.09.22,5,5,0,0,1,1,.62l-.06-1.25V1.37h1.24V12.05h-1l-.1-.86h-.05a4.36,4.36,0,0,1-1,.73,2.39,2.39,0,0,1-1.2.31,2.7,2.7,0,0,1-2.2-1A4.29,4.29,0,0,1,75.16,8.42Zm1.28,0A3.51,3.51,0,0,0,77,10.46a1.72,1.72,0,0,0,1.49.73,2,2,0,0,0,1-.24,3.57,3.57,0,0,0,.9-.76V6.38a3,3,0,0,0-.9-.59,2.19,2.19,0,0,0-.87-.18,1.67,1.67,0,0,0-.82.21,1.91,1.91,0,0,0-.67.57,2.75,2.75,0,0,0-.45.87A3.7,3.7,0,0,0,76.44,8.4Z" transform="translate(-0.42 -0.56)"/><path class="cls-2" d="M86.68,10.16a2,2,0,0,1,1.07-1.84,9,9,0,0,1,3.42-.89,3.82,3.82,0,0,0-.07-.68,1.77,1.77,0,0,0-.24-.58,1.3,1.3,0,0,0-.46-.41,1.46,1.46,0,0,0-.73-.16,3,3,0,0,0-1.2.24,6.07,6.07,0,0,0-1,.54L87,5.52a7.5,7.5,0,0,1,1.24-.63,4.07,4.07,0,0,1,1.62-.31,2.24,2.24,0,0,1,1.94.82,3.66,3.66,0,0,1,.6,2.18v4.47h-1l-.11-.87h0a5.94,5.94,0,0,1-1.13.74,2.75,2.75,0,0,1-1.28.31,2.23,2.23,0,0,1-1.54-.54A1.92,1.92,0,0,1,86.68,10.16Zm1.22-.09a1.05,1.05,0,0,0,.36.9,1.51,1.51,0,0,0,.91.27,2.09,2.09,0,0,0,1-.25,4.83,4.83,0,0,0,1-.73v-2a13,13,0,0,0-1.55.28,3.94,3.94,0,0,0-1,.39,1.46,1.46,0,0,0-.55.52A1.29,1.29,0,0,0,87.9,10.07Z" transform="translate(-0.42 -0.56)"/><path class="cls-2" d="M94.58,4.76h1l.1,1h0a6,6,0,0,1,1.1-.88,2.55,2.55,0,0,1,1.34-.35,2,2,0,0,1,1.69.72,3.6,3.6,0,0,1,.53,2.13v4.62H99.18V7.59a2.61,2.61,0,0,0-.33-1.49,1.22,1.22,0,0,0-1-.46,1.78,1.78,0,0,0-1,.29,6.52,6.52,0,0,0-1,.84v5.28H94.58Z" transform="translate(-0.42 -0.56)"/><path class="cls-2" d="M102.2,8.42a4.75,4.75,0,0,1,.26-1.6,4,4,0,0,1,.7-1.21,3.09,3.09,0,0,1,1-.76,2.77,2.77,0,0,1,1.2-.27,2.47,2.47,0,0,1,1.09.22,5,5,0,0,1,1,.62l-.06-1.25V1.37h1.24V12.05h-1l-.1-.86h0a4.36,4.36,0,0,1-1,.73,2.39,2.39,0,0,1-1.2.31,2.7,2.7,0,0,1-2.2-1A4.29,4.29,0,0,1,102.2,8.42Zm1.28,0a3.51,3.51,0,0,0,.52,2.06,1.72,1.72,0,0,0,1.49.73,2,2,0,0,0,1-.24,3.57,3.57,0,0,0,.9-.76V6.38a3,3,0,0,0-.9-.59,2.19,2.19,0,0,0-.87-.18,1.67,1.67,0,0,0-.82.21,1.91,1.91,0,0,0-.67.57,2.75,2.75,0,0,0-.45.87A3.7,3.7,0,0,0,103.48,8.4Z" transform="translate(-0.42 -0.56)"/><path class="cls-2" d="M114.2,2.21h1.29l3.56,6.18,1.06,2h.06c0-.5-.06-1-.1-1.55s0-1.07,0-1.59V2.21h1.19v9.84h-1.29l-3.57-6.2-1.07-2h-.06c0,.5.08,1,.11,1.52s.06,1,.06,1.55v5.15H114.2Z" transform="translate(-0.42 -0.56)"/><path class="cls-2" d="M123.56,4.76h1.25V9.21a2.65,2.65,0,0,0,.32,1.5,1.18,1.18,0,0,0,1,.45,1.74,1.74,0,0,0,1-.29,4.61,4.61,0,0,0,1-.94V4.76h1.23v7.29h-1l-.11-1.14h0a4.78,4.78,0,0,1-1.08,1,2.37,2.37,0,0,1-1.32.36,2,2,0,0,1-1.71-.72,3.6,3.6,0,0,1-.53-2.13Z" transform="translate(-0.42 -0.56)"/><path class="cls-2" d="M131.91,5.76h-1.08V4.83L132,4.76l.15-2h1v2h2v1h-2V9.81a1.94,1.94,0,0,0,.25,1,1,1,0,0,0,.88.36,1.64,1.64,0,0,0,.42-.06,3.14,3.14,0,0,0,.4-.13l.24.93c-.2.07-.41.13-.65.19a3.34,3.34,0,0,1-.7.08,2.38,2.38,0,0,1-1-.18,1.68,1.68,0,0,1-.64-.5,1.85,1.85,0,0,1-.36-.76,4.37,4.37,0,0,1-.1-1Z" transform="translate(-0.42 -0.56)"/><path class="cls-2" d="M136.73,4.76h1l.11,1.32h0a3.33,3.33,0,0,1,.91-1.1,1.86,1.86,0,0,1,1.16-.4,1.94,1.94,0,0,1,.78.15l-.24,1.08-.33-.09a1.9,1.9,0,0,0-.37,0,1.62,1.62,0,0,0-1,.37A3,3,0,0,0,138,7.37v4.68h-1.23Z" transform="translate(-0.42 -0.56)"/><path class="cls-2" d="M142.65,3.26A.89.89,0,0,1,142,3a.76.76,0,0,1-.25-.57.73.73,0,0,1,.25-.57,1,1,0,0,1,1.22,0,.72.72,0,0,1,.24.57.75.75,0,0,1-.24.57A.89.89,0,0,1,142.65,3.26ZM142,4.76h1.23v7.29H142Z" transform="translate(-0.42 -0.56)"/><path class="cls-2" d="M145.79,5.76h-1.08V4.83l1.14-.07.15-2h1v2h2v1h-2V9.81a1.94,1.94,0,0,0,.24,1,1,1,0,0,0,.88.36,1.64,1.64,0,0,0,.42-.06A3.31,3.31,0,0,0,149,11l.24.93c-.2.07-.42.13-.66.19a3.25,3.25,0,0,1-.69.08,2.35,2.35,0,0,1-1-.18,1.64,1.64,0,0,1-.65-.5,1.84,1.84,0,0,1-.35-.76,4.35,4.35,0,0,1-.11-1Z" transform="translate(-0.42 -0.56)"/><path class="cls-2" d="M151.25,3.26a.87.87,0,0,1-.61-.23.72.72,0,0,1-.25-.57.7.7,0,0,1,.25-.57.86.86,0,0,1,.61-.22.84.84,0,0,1,.6.22.7.7,0,0,1,.25.57.72.72,0,0,1-.25.57A.85.85,0,0,1,151.25,3.26Zm-.63,1.5h1.23v7.29h-1.23Z" transform="translate(-0.42 -0.56)"/><path class="cls-2" d="M153.64,8.42a4.39,4.39,0,0,1,.28-1.63,3.68,3.68,0,0,1,.74-1.21,3.15,3.15,0,0,1,1.07-.75A3.33,3.33,0,0,1,157,4.58a3.28,3.28,0,0,1,1.28.25,3.15,3.15,0,0,1,1.07.75,3.68,3.68,0,0,1,.74,1.21,4.39,4.39,0,0,1,.28,1.63,4.28,4.28,0,0,1-.28,1.61,3.44,3.44,0,0,1-.74,1.2,3.12,3.12,0,0,1-1.07.74,3.29,3.29,0,0,1-1.28.26,3.34,3.34,0,0,1-1.29-.26,3.12,3.12,0,0,1-1.07-.74,3.44,3.44,0,0,1-.74-1.2A4.28,4.28,0,0,1,153.64,8.42Zm1.28,0a4,4,0,0,0,.15,1.14,2.87,2.87,0,0,0,.42.88,2.15,2.15,0,0,0,.67.57,1.91,1.91,0,0,0,.86.2,1.87,1.87,0,0,0,.85-.2,2.15,2.15,0,0,0,.67-.57,2.89,2.89,0,0,0,.43-.88,4,4,0,0,0,.15-1.14A4.16,4.16,0,0,0,159,7.27a3,3,0,0,0-.43-.89,2.05,2.05,0,0,0-.67-.58,1.87,1.87,0,0,0-.85-.2,1.91,1.91,0,0,0-.86.2,2.05,2.05,0,0,0-.67.58,2.93,2.93,0,0,0-.42.89A4.16,4.16,0,0,0,154.92,8.42Z" transform="translate(-0.42 -0.56)"/><path class="cls-2" d="M162.2,4.76h1l.1,1h.05a6,6,0,0,1,1.1-.88,2.55,2.55,0,0,1,1.34-.35,2,2,0,0,1,1.69.72A3.6,3.6,0,0,1,168,7.43v4.62H166.8V7.59a2.61,2.61,0,0,0-.33-1.49,1.22,1.22,0,0,0-1.05-.46,1.78,1.78,0,0,0-1,.29,6.52,6.52,0,0,0-1,.84v5.28H162.2Z" transform="translate(-0.42 -0.56)"/><path class="cls-2" d="M173.58,9.9a4.16,4.16,0,0,0,1.24.9,3.47,3.47,0,0,0,1.48.33,2.28,2.28,0,0,0,1.51-.44,1.55,1.55,0,0,0,.41-1.8,1.49,1.49,0,0,0-.34-.45,2.92,2.92,0,0,0-.52-.34l-.64-.31-1.41-.62a6.78,6.78,0,0,1-.71-.36A2.87,2.87,0,0,1,174,6.3a2.37,2.37,0,0,1-.47-.71,2.33,2.33,0,0,1-.18-1,2.43,2.43,0,0,1,.23-1,2.6,2.6,0,0,1,.65-.83,3.06,3.06,0,0,1,1-.55A3.79,3.79,0,0,1,176.4,2a3.88,3.88,0,0,1,1.64.34,4,4,0,0,1,1.27.87l-.67.81a3.69,3.69,0,0,0-1-.68,3.08,3.08,0,0,0-1.24-.25,2.12,2.12,0,0,0-1.33.39,1.25,1.25,0,0,0-.5,1,1.25,1.25,0,0,0,.14.61,1.63,1.63,0,0,0,.39.44,3.84,3.84,0,0,0,.52.33l.59.26,1.39.6a6.68,6.68,0,0,1,.8.41,3.1,3.1,0,0,1,.64.54,2.6,2.6,0,0,1,.43.72,2.78,2.78,0,0,1,.16.95,2.56,2.56,0,0,1-.24,1.1,2.5,2.5,0,0,1-.66.89,3,3,0,0,1-1,.6,4.07,4.07,0,0,1-1.4.22,4.7,4.7,0,0,1-3.45-1.46Z" transform="translate(-0.42 -0.56)"/><path class="cls-2" d="M181,8.42a4.49,4.49,0,0,1,.27-1.61A3.74,3.74,0,0,1,182,5.6a3.21,3.21,0,0,1,1-.76,3.12,3.12,0,0,1,2.45,0,2.43,2.43,0,0,1,.92.69A3.25,3.25,0,0,1,187,6.59a4.75,4.75,0,0,1,.2,1.41,4.08,4.08,0,0,1-.05.67h-4.92a2.89,2.89,0,0,0,.73,1.88,2.22,2.22,0,0,0,1.7.69,2.78,2.78,0,0,0,1-.16,4.42,4.42,0,0,0,.85-.41l.43.81a6.15,6.15,0,0,1-1.06.52,3.76,3.76,0,0,1-1.34.23,3.63,3.63,0,0,1-1.37-.26,3.3,3.3,0,0,1-1.11-.75,3.65,3.65,0,0,1-.75-1.2A4.67,4.67,0,0,1,181,8.42Zm5.1-.56a2.64,2.64,0,0,0-.48-1.71,1.57,1.57,0,0,0-1.32-.6,1.94,1.94,0,0,0-.75.16,2.14,2.14,0,0,0-.63.45,2.45,2.45,0,0,0-.48.72,3.2,3.2,0,0,0-.24,1Z" transform="translate(-0.42 -0.56)"/><path class="cls-2" d="M188.89,4.76h1L190,6.08h0A3.33,3.33,0,0,1,191,5a1.86,1.86,0,0,1,1.16-.4,1.94,1.94,0,0,1,.78.15l-.24,1.08-.33-.09a1.9,1.9,0,0,0-.37,0,1.62,1.62,0,0,0-1,.37,3,3,0,0,0-.88,1.31v4.68h-1.23Z" transform="translate(-0.42 -0.56)"/><path class="cls-2" d="M193.66,4.76h1.27l1.38,4.14c.11.36.23.72.34,1.08s.23.71.34,1.06h.06l.33-1.06.33-1.08,1.38-4.14h1.21l-2.58,7.29h-1.44Z" transform="translate(-0.42 -0.56)"/><path class="cls-2" d="M202.31,3.26A.87.87,0,0,1,201.7,3a.72.72,0,0,1-.25-.57.7.7,0,0,1,.25-.57.86.86,0,0,1,.61-.22.84.84,0,0,1,.6.22.7.7,0,0,1,.25.57.72.72,0,0,1-.25.57A.85.85,0,0,1,202.31,3.26Zm-.63,1.5h1.23v7.29h-1.23Z" transform="translate(-0.42 -0.56)"/><path class="cls-2" d="M204.7,8.42A4.39,4.39,0,0,1,205,6.79a3.72,3.72,0,0,1,.76-1.21,3.16,3.16,0,0,1,1.12-.75,3.55,3.55,0,0,1,1.34-.25,2.8,2.8,0,0,1,1.24.26,4.23,4.23,0,0,1,.89.61l-.61.79a3.32,3.32,0,0,0-.69-.46,1.66,1.66,0,0,0-.78-.18,2.17,2.17,0,0,0-.92.2,2.12,2.12,0,0,0-.72.58,2.8,2.8,0,0,0-.47.89A3.51,3.51,0,0,0,206,8.42a3.7,3.7,0,0,0,.16,1.14,2.73,2.73,0,0,0,.46.88,2.08,2.08,0,0,0,.71.57,2.17,2.17,0,0,0,.92.2,2,2,0,0,0,1-.22,3.4,3.4,0,0,0,.76-.52l.55.81a4.07,4.07,0,0,1-1.1.69,3.28,3.28,0,0,1-1.27.26,3.57,3.57,0,0,1-1.35-.26,3,3,0,0,1-1.09-.74A3.55,3.55,0,0,1,205,10,4.73,4.73,0,0,1,204.7,8.42Z" transform="translate(-0.42 -0.56)"/><path class="cls-2" d="M211.29,8.42a4.49,4.49,0,0,1,.27-1.61,3.74,3.74,0,0,1,.74-1.21,3.21,3.21,0,0,1,1-.76,3,3,0,0,1,1.22-.26,3,3,0,0,1,1.23.24,2.43,2.43,0,0,1,.92.69,3.25,3.25,0,0,1,.56,1.08,4.75,4.75,0,0,1,.2,1.41,4.08,4.08,0,0,1-.05.67H212.5a2.89,2.89,0,0,0,.73,1.88,2.22,2.22,0,0,0,1.7.69,2.78,2.78,0,0,0,1-.16,4.15,4.15,0,0,0,.85-.41l.43.81a6.15,6.15,0,0,1-1.06.52,3.73,3.73,0,0,1-1.34.23,3.63,3.63,0,0,1-1.37-.26,3.3,3.3,0,0,1-1.11-.75,3.47,3.47,0,0,1-.74-1.2A4.44,4.44,0,0,1,211.29,8.42Zm5.1-.56a2.64,2.64,0,0,0-.48-1.71,1.57,1.57,0,0,0-1.32-.6,1.94,1.94,0,0,0-.75.16,2.28,2.28,0,0,0-.63.45,2.66,2.66,0,0,0-.48.72,3.52,3.52,0,0,0-.24,1Z" transform="translate(-0.42 -0.56)"/><path class="cls-2" d="M51.78,19.46h.75v3.48a3.22,3.22,0,0,0,.11.89,1.66,1.66,0,0,0,.29.58,1.14,1.14,0,0,0,.44.31,1.53,1.53,0,0,0,.54.09,1.63,1.63,0,0,0,.55-.09,1.31,1.31,0,0,0,.44-.31,1.66,1.66,0,0,0,.29-.58,2.88,2.88,0,0,0,.11-.89V19.46H56v3.46a3.79,3.79,0,0,1-.16,1.2,2.16,2.16,0,0,1-.45.79,1.58,1.58,0,0,1-.67.43,2.45,2.45,0,0,1-.83.13,2.55,2.55,0,0,1-.84-.13,1.62,1.62,0,0,1-.68-.43,2.16,2.16,0,0,1-.45-.79,4.1,4.1,0,0,1-.16-1.2Z" transform="translate(-0.42 -0.56)"/><path class="cls-2" d="M57.26,24.91a.6.6,0,0,1,.15-.42.57.57,0,0,1,.39-.16.54.54,0,0,1,.37.16.61.61,0,0,1,.16.42.56.56,0,0,1-.16.4.5.5,0,0,1-.37.16.53.53,0,0,1-.39-.16A.55.55,0,0,1,57.26,24.91Z" transform="translate(-0.42 -0.56)"/><path class="cls-2" d="M59.74,24.07a2.48,2.48,0,0,0,.74.54,2.14,2.14,0,0,0,.89.2,1.45,1.45,0,0,0,.91-.26.88.88,0,0,0,.32-.7.74.74,0,0,0-.08-.38.79.79,0,0,0-.2-.27A1.41,1.41,0,0,0,62,23l-.39-.19-.85-.36-.42-.22a1.9,1.9,0,0,1-.39-.31,1.81,1.81,0,0,1-.28-.42,1.5,1.5,0,0,1-.1-.58,1.34,1.34,0,0,1,.14-.62,1.55,1.55,0,0,1,.38-.5,1.68,1.68,0,0,1,.59-.32,2.17,2.17,0,0,1,.74-.12,2.45,2.45,0,0,1,1,.2,2.51,2.51,0,0,1,.77.53l-.41.48a2.21,2.21,0,0,0-.6-.41,1.75,1.75,0,0,0-.74-.14,1.33,1.33,0,0,0-.8.22.77.77,0,0,0-.3.64.66.66,0,0,0,.09.36,1,1,0,0,0,.23.27,1.61,1.61,0,0,0,.31.19l.35.16.84.36a3.62,3.62,0,0,1,.48.25,1.5,1.5,0,0,1,.38.32,1.45,1.45,0,0,1,.26.43,1.72,1.72,0,0,1,.1.58,1.58,1.58,0,0,1-.14.65,1.65,1.65,0,0,1-.4.54,2.16,2.16,0,0,1-.63.36,2.47,2.47,0,0,1-.84.13,2.72,2.72,0,0,1-1.15-.24,2.69,2.69,0,0,1-.92-.63Z" transform="translate(-0.42 -0.56)"/><path class="cls-2" d="M64.3,24.91a.57.57,0,0,1,.16-.42.53.53,0,0,1,.38-.16.55.55,0,0,1,.38.16.6.6,0,0,1,.15.42.55.55,0,0,1-.15.4.51.51,0,0,1-.38.16.49.49,0,0,1-.38-.16A.52.52,0,0,1,64.3,24.91Z" transform="translate(-0.42 -0.56)"/><path class="cls-2" d="M68.59,19.46h1.47a2.73,2.73,0,0,1,2.08.75,3.08,3.08,0,0,1,.71,2.17,4.08,4.08,0,0,1-.18,1.26,2.49,2.49,0,0,1-.53.93,2.28,2.28,0,0,1-.86.59,3.36,3.36,0,0,1-1.18.2H68.59ZM70,24.75a1.92,1.92,0,0,0,1.55-.62,2.7,2.7,0,0,0,.52-1.75,2.58,2.58,0,0,0-.52-1.72A2,2,0,0,0,70,20.07h-.68v4.68Z" transform="translate(-0.42 -0.56)"/><path class="cls-2" d="M74.12,19.46h3.4v.63H74.87v1.85h2.24v.64H74.87v2.14h2.74v.64H74.12Z" transform="translate(-0.42 -0.56)"/><path class="cls-2" d="M78.86,19.46h1.81a4.06,4.06,0,0,1,.89.09,1.8,1.8,0,0,1,.69.29,1.27,1.27,0,0,1,.44.53,1.88,1.88,0,0,1,.16.82,1.8,1.8,0,0,1-.16.81,1.46,1.46,0,0,1-.44.57,2,2,0,0,1-.69.34,3.5,3.5,0,0,1-.89.11H79.61v2.34h-.75Zm1.72,2.95a1.89,1.89,0,0,0,1.15-.29,1.12,1.12,0,0,0,.37-.93,1,1,0,0,0-.37-.88,2.11,2.11,0,0,0-1.15-.25h-1v2.35Z" transform="translate(-0.42 -0.56)"/><path class="cls-2" d="M86.31,23.56H84.16l-.57,1.8h-.77l2-5.9h.85l2,5.9h-.81Zm-.19-.6-.28-.9c-.11-.33-.21-.66-.31-1l-.29-1h0c-.09.34-.18.68-.28,1s-.2.66-.31,1l-.28.9Z" transform="translate(-0.42 -0.56)"/><path class="cls-2" d="M91.74,25.36l-1.42-2.49H89.25v2.49H88.5v-5.9h1.85a4.33,4.33,0,0,1,.83.08,1.73,1.73,0,0,1,.66.29,1.31,1.31,0,0,1,.42.51,1.91,1.91,0,0,1-.2,1.88,1.85,1.85,0,0,1-1,.57l1.5,2.57Zm-2.49-3.1h1A1.69,1.69,0,0,0,91.3,22a1,1,0,0,0,.37-.86.89.89,0,0,0-.37-.82,2,2,0,0,0-1.06-.23h-1Z" transform="translate(-0.42 -0.56)"/><path class="cls-2" d="M94.78,20.09H93v-.63h4.32v.63H95.53v5.27h-.75Z" transform="translate(-0.42 -0.56)"/><path class="cls-2" d="M98.38,19.46h.88l1.14,3.16.43,1.21h0l.41-1.21,1.14-3.16h.88v5.9h-.71V22.11q0-.39,0-.87c0-.32,0-.61.07-.87h0l-.48,1.31L101,24.77h-.42l-1.15-3.09L99,20.37h0q0,.39.06.87c0,.32,0,.61,0,.87v3.25h-.69Z" transform="translate(-0.42 -0.56)"/><path class="cls-2" d="M104.92,19.46h3.4v.63h-2.65v1.85h2.24v.64h-2.24v2.14h2.74v.64h-3.49Z" transform="translate(-0.42 -0.56)"/><path class="cls-2" d="M109.66,19.46h.78l2.13,3.7.64,1.23h0c0-.3,0-.61,0-.93s0-.64,0-.95V19.46h.71v5.9h-.77L111,21.64l-.64-1.21h0c0,.3,0,.6.07.91s0,.62,0,.93v3.09h-.71Z" transform="translate(-0.42 -0.56)"/><path class="cls-2" d="M116.71,20.09h-1.78v-.63h4.32v.63h-1.79v5.27h-.75Z" transform="translate(-0.42 -0.56)"/><path class="cls-2" d="M124.3,25.47a2.31,2.31,0,0,1-1-.22,2.24,2.24,0,0,1-.79-.61,2.7,2.7,0,0,1-.52-1,4.2,4.2,0,0,1-.19-1.28,4.13,4.13,0,0,1,.19-1.27,2.69,2.69,0,0,1,.52-1,2.08,2.08,0,0,1,.79-.59,2.45,2.45,0,0,1,1-.21,2.38,2.38,0,0,1,1.83.81,2.76,2.76,0,0,1,.52,1,4.08,4.08,0,0,1,.18,1.26,4.21,4.21,0,0,1-.18,1.28,2.86,2.86,0,0,1-.52,1,2.41,2.41,0,0,1-.81.61A2.25,2.25,0,0,1,124.3,25.47Zm0-.66a1.42,1.42,0,0,0,.72-.17,1.6,1.6,0,0,0,.55-.49,2.42,2.42,0,0,0,.35-.76,3.53,3.53,0,0,0,.13-1,3.44,3.44,0,0,0-.13-1,2.36,2.36,0,0,0-.35-.75,1.64,1.64,0,0,0-.55-.47,1.68,1.68,0,0,0-1.43,0,1.64,1.64,0,0,0-.55.47,2.61,2.61,0,0,0-.36.75,3.84,3.84,0,0,0-.12,1,3.94,3.94,0,0,0,.12,1,2.68,2.68,0,0,0,.36.76,1.6,1.6,0,0,0,.55.49A1.41,1.41,0,0,0,124.3,24.81Z" transform="translate(-0.42 -0.56)"/><path class="cls-2" d="M128.1,19.46h3.4v.63h-2.65v2h2.25v.63h-2.25v2.65h-.75Z" transform="translate(-0.42 -0.56)"/><path class="cls-2" d="M137.07,23.56h-2.16l-.56,1.8h-.77l2-5.9h.85l2,5.9h-.8Zm-.19-.6-.28-.9c-.11-.33-.21-.66-.31-1l-.29-1h0c-.09.34-.19.68-.28,1s-.2.66-.31,1l-.28.9Z" transform="translate(-0.42 -0.56)"/><path class="cls-2" d="M138.83,22.41a3.91,3.91,0,0,1,.2-1.28,2.85,2.85,0,0,1,.57-1,2.37,2.37,0,0,1,.86-.61,2.75,2.75,0,0,1,1.09-.21,2.11,2.11,0,0,1,1,.23,2.79,2.79,0,0,1,.67.5l-.42.47a2.53,2.53,0,0,0-.52-.39,1.62,1.62,0,0,0-.74-.15,1.92,1.92,0,0,0-.81.16,1.7,1.7,0,0,0-.62.48,2.66,2.66,0,0,0-.39.75,3.33,3.33,0,0,0-.14,1,3.79,3.79,0,0,0,.13,1,2.35,2.35,0,0,0,.38.76,1.7,1.7,0,0,0,.61.49,2.11,2.11,0,0,0,1.44.08,1.4,1.4,0,0,0,.47-.26V22.92h-1.25V22.3h1.93v2.48a2,2,0,0,1-.76.49,2.76,2.76,0,0,1-1.07.2,2.69,2.69,0,0,1-1.07-.21,2.36,2.36,0,0,1-.83-.6,2.66,2.66,0,0,1-.55-1A4,4,0,0,1,138.83,22.41Z" transform="translate(-0.42 -0.56)"/><path class="cls-2" d="M148,25.36l-1.42-2.49h-1.07v2.49h-.75v-5.9h1.85a4.25,4.25,0,0,1,.83.08,1.66,1.66,0,0,1,.66.29,1.43,1.43,0,0,1,.43.51,1.79,1.79,0,0,1,.15.77,1.65,1.65,0,0,1-.36,1.11,1.86,1.86,0,0,1-1,.57l1.49,2.57Zm-2.49-3.1h1a1.69,1.69,0,0,0,1.06-.29,1,1,0,0,0,.37-.86.89.89,0,0,0-.37-.82,2,2,0,0,0-1.06-.23h-1Z" transform="translate(-0.42 -0.56)"/><path class="cls-2" d="M150,19.46h.75v5.9H150Z" transform="translate(-0.42 -0.56)"/><path class="cls-2" d="M152,22.41a3.66,3.66,0,0,1,.2-1.28,2.79,2.79,0,0,1,.54-1,2.39,2.39,0,0,1,.84-.61,2.59,2.59,0,0,1,1.05-.21,1.89,1.89,0,0,1,.94.22,2.75,2.75,0,0,1,.67.51l-.43.47a2,2,0,0,0-.51-.4,1.41,1.41,0,0,0-.67-.14,1.73,1.73,0,0,0-.76.16,1.69,1.69,0,0,0-.59.48,2.39,2.39,0,0,0-.37.75,3.33,3.33,0,0,0-.14,1,3.79,3.79,0,0,0,.13,1,2.34,2.34,0,0,0,.37.76,1.5,1.5,0,0,0,.57.49,1.58,1.58,0,0,0,.76.17,1.49,1.49,0,0,0,.75-.17,2.27,2.27,0,0,0,.61-.49l.42.46a2.62,2.62,0,0,1-.79.63,2.18,2.18,0,0,1-1,.23,2.53,2.53,0,0,1-1-.21,2.42,2.42,0,0,1-.82-.6,2.79,2.79,0,0,1-.54-1A4,4,0,0,1,152,22.41Z" transform="translate(-0.42 -0.56)"/><path class="cls-2" d="M157.31,19.46h.74v3.48a3.22,3.22,0,0,0,.11.89,1.66,1.66,0,0,0,.29.58,1.22,1.22,0,0,0,.44.31,1.61,1.61,0,0,0,.54.09,1.63,1.63,0,0,0,.55-.09,1.22,1.22,0,0,0,.44-.31,1.51,1.51,0,0,0,.3-.58,3.26,3.26,0,0,0,.1-.89V19.46h.72v3.46a3.79,3.79,0,0,1-.16,1.2,2,2,0,0,1-.44.79,1.64,1.64,0,0,1-.67.43,2.78,2.78,0,0,1-1.68,0,1.68,1.68,0,0,1-.68-.43,2.14,2.14,0,0,1-.44-.79,3.79,3.79,0,0,1-.16-1.2Z" transform="translate(-0.42 -0.56)"/><path class="cls-2" d="M163.14,19.46h.74v5.26h2.59v.64h-3.33Z" transform="translate(-0.42 -0.56)"/><path class="cls-2" d="M167.66,20.09h-1.79v-.63h4.32v.63h-1.78v5.27h-.75Z" transform="translate(-0.42 -0.56)"/><path class="cls-2" d="M171.23,19.46H172v3.48a3.26,3.26,0,0,0,.1.89,1.67,1.67,0,0,0,.3.58,1.1,1.1,0,0,0,.43.31,1.61,1.61,0,0,0,.54.09,1.63,1.63,0,0,0,.55-.09,1.14,1.14,0,0,0,.44-.31,1.51,1.51,0,0,0,.3-.58,3.22,3.22,0,0,0,.11-.89V19.46h.72v3.46a4.1,4.1,0,0,1-.16,1.2,2.16,2.16,0,0,1-.45.79,1.64,1.64,0,0,1-.67.43,2.78,2.78,0,0,1-1.68,0,1.64,1.64,0,0,1-.67-.43,2.16,2.16,0,0,1-.45-.79,3.79,3.79,0,0,1-.16-1.2Z" transform="translate(-0.42 -0.56)"/><path class="cls-2" d="M180.3,25.36l-1.42-2.49h-1.07v2.49h-.75v-5.9h1.84a4.36,4.36,0,0,1,.84.08,1.8,1.8,0,0,1,.66.29,1.31,1.31,0,0,1,.42.51,1.79,1.79,0,0,1,.16.77,1.65,1.65,0,0,1-.36,1.11,1.89,1.89,0,0,1-1,.57l1.5,2.57Zm-2.49-3.1h1a1.71,1.71,0,0,0,1.06-.29,1,1,0,0,0,.37-.86.89.89,0,0,0-.37-.82,2.06,2.06,0,0,0-1.06-.23h-1Z" transform="translate(-0.42 -0.56)"/><path class="cls-2" d="M182.29,19.46h3.4v.63H183v1.85h2.24v.64H183v2.14h2.74v.64h-3.49Z" transform="translate(-0.42 -0.56)"/><g class="cls-3"><path class="cls-2" d="M9.81,1.71,9.76,8.85C9.76,11.82,8,13,5.62,13,3.58,13,1,12.06,1,9V1.71A.88.88,0,0,0,.42.93H3.77a.86.86,0,0,0-.54.78V9c0,1.22.42,3,2.69,3C8,12,8.75,10.62,8.75,8.89l0-7.18A.84.84,0,0,0,8.24.93h2a.81.81,0,0,0-.46.78" transform="translate(-0.42 -0.56)"/><path class="cls-2" d="M14.54,13a7.35,7.35,0,0,1-3.35-.84L11.1,9.19c.33,1.23,1.38,2.87,3.2,2.87A2.05,2.05,0,0,0,16.55,10c0-1.68-1.52-1.9-3.11-2.76s-2.3-1.83-2.3-3.16c0-2.37,2.21-3.31,3.8-3.31a5.67,5.67,0,0,1,2.64.64L17.66,4a3.13,3.13,0,0,0-2.91-2.32A1.68,1.68,0,0,0,12.9,3.32c0,1.07.75,1.47,2.39,2.22s3.32,1.34,3.32,3.77A3.84,3.84,0,0,1,14.54,13" transform="translate(-0.42 -0.56)"/><path class="cls-2" d="M24.24,12.8H19.76a.87.87,0,0,0,.45-.79V1.72a.83.83,0,0,0-.45-.79H24.4c5.74,0,6.89,4.07,6.89,5.76,0,3-2.33,6.11-7,6.11M24,1.8c-.42,0-1.34,0-1.6,0V11.89h1.39c3.95,0,5.05-2.65,5.05-5.2A4.62,4.62,0,0,0,24,1.8" transform="translate(-0.42 -0.56)"/><path class="cls-2" d="M38.08,12.8c.45-.25.54-.49.42-.86-.06-.17-.51-1.24-1-2.42H33.23a22.71,22.71,0,0,0-1,2.4c-.16.42-.07.67.4.88H30.24a2,2,0,0,0,.82-.86C31.39,11.28,36,.56,36,.56s4.65,10.72,5,11.38a1.54,1.54,0,0,0,.87.86ZM35.32,4.33s-1.19,3-1.74,4.28H37.1c-.82-1.94-1.78-4.28-1.78-4.28" transform="translate(-0.42 -0.56)"/><path class="cls-2" d="M41.29,14.47S15.89,13.84.85,21.86c0,0,15.94-6.3,40.44-5.67Z" transform="translate(-0.42 -0.56)"/><path class="cls-2" d="M.85,14.47s8.56.09,13.87,2.08c0,0-10.9-.9-13.87-.45Z" transform="translate(-0.42 -0.56)"/><path class="cls-2" d="M.85,17.27a90.77,90.77,0,0,1,9.82.09S1.75,18.44.85,18.89Z" transform="translate(-0.42 -0.56)"/><path class="cls-2" d="M37.08,17.54H37c-7.39.15-22.87,1-36.09,5.71v5.62H41.3V17.54s-1.58-.05-4.22,0" transform="translate(-0.42 -0.56)"/></g></g></g></svg>