<?xml version="1.0" encoding="utf-8"?>
<!-- Generator: Adobe Illustrator 26.2.1, SVG Export Plug-In . SVG Version: 6.00 Build 0)  -->
<svg version="1.1" id="FULL_w_x2F_tagline" xmlns="http://www.w3.org/2000/svg" xmlns:xlink="http://www.w3.org/1999/xlink" x="0px"
	 y="0px" viewBox="0 0 409.7 97.4" style="enable-background:new 0 0 409.7 97.4;" xml:space="preserve">
<style type="text/css">
	.st0{fill:#FFFFFF;}
</style>
<g id="WHITE_1_">
	<g id="Mark_5_">
		<g>
			<path class="st0" d="M20.1,28c0.3-0.1,0.5-0.2,1-0.3c0.1,0,0.2,0,0.4,0c0.4,0,0.7,0.1,1,0.2c1.6,0.5,2.6,2.1,2.3,3.7l-3.1,21.1
				l24.4-24c0.6-0.6,1.5-1,2.4-1c0.5,0,1.1,0.1,1.5,0.4c1.3,0.7,2,2.1,1.8,3.5l-3.1,21L73,28.7c0.6-0.6,1.5-1,2.4-1
				c0.5,0,1.1,0.1,1.5,0.4c1.3,0.7,2,2.1,1.8,3.5l-3.9,26.1c4.5-1.9,11.1-5.1,18.2-9.5l0.3-0.2c0.6-19.2-10.8-37.5-29.7-44.8
				c-24-9.4-51,2.5-60.4,26.5c-1.4,3.6-2.3,7.2-2.8,10.8c8.3-5.7,16.3-11.1,19.5-12.4C20,28,20.1,28,20.1,28z"/>
			<path class="st0" d="M70.8,65.5L70.8,65.5L70.8,65.5c-0.6,0-1-0.1-1.4-0.3c-0.4-0.2-0.7-0.4-1-0.7c-0.7-0.6-1-1.5-1-2.4
				c0-0.3,0-0.6,0.1-0.8l3.1-20.7L46.4,64.4c-0.6,0.7-1.6,1.2-2.6,1.2c-1.4,0-2.6-0.8-3.1-2.1c-0.3-0.7-0.3-1.4-0.2-2l3.1-20.9
				l-24.4,24c-0.6,0.6-1.5,0.9-2.4,0.9c-1,0-2-0.4-2.6-1.1c-0.7-0.8-1-1.8-0.8-2.7l3.9-26.2c-4.1,1.8-10.2,4.6-16.9,8.7l-0.3,0.2
				c-1,19.5,10.5,38.3,29.6,45.7c24,9.4,51-2.5,60.4-26.5c1.5-3.9,2.5-7.9,2.9-11.9C83.6,58.2,76.2,63.3,72.9,65
				C72.4,65.1,71.5,65.5,70.8,65.5z"/>
		</g>
	</g>
	<g id="Mathematica_2_">
		<path class="st0" d="M143.5,62.7h-4.3V37.4L128.6,55H128l-10.6-17.6v25.3h-4.3V30.3h4.9l10.3,17.1l10.3-17.1h4.9L143.5,62.7
			L143.5,62.7z"/>
		<path class="st0" d="M173.5,39.5v23.1h-4v-4c-1.9,2.8-4.8,4.6-8.7,4.6c-6.4,0-11.7-5.3-11.7-12.2c0-6.8,5.3-12.2,11.7-12.2
			c3.9,0,6.9,1.8,8.7,4.6v-4h4V39.5z M169.5,51.1c0-4.7-3.6-8.3-8.2-8.3s-8.2,3.6-8.2,8.3c0,4.7,3.6,8.3,8.2,8.3
			S169.5,55.8,169.5,51.1z"/>
		<path class="st0" d="M186,43.4v12.5c0,3.5,2,3.3,6.2,3.1v3.6c-6.9,0.9-10.2-0.9-10.2-6.7V43.4h-4.6v-3.9h4.6v-5.3l4-1.2v6.5h6.2
			v3.9H186z"/>
		<path class="st0" d="M217.3,48.5v14.2h-4v-14c0-3.8-2.2-5.9-5.7-5.9c-3.7,0-6.7,2.2-6.7,7.6v12.3h-4V30.3h4v12.6
			c1.7-2.7,4.3-3.9,7.5-3.9C213.8,38.9,217.3,42.6,217.3,48.5z"/>
		<path class="st0" d="M234.6,59.5c3.2,0,5.5-1.5,6.7-3.4l3.4,1.9c-2,3.1-5.6,5.2-10.2,5.2c-7.4,0-12.4-5.2-12.4-12.2
			c0-6.8,4.9-12.2,12.1-12.2c7,0,11.5,5.7,11.5,12.2c0,0.6,0,1.2-0.1,1.8h-19.4C227,57.1,230.3,59.5,234.6,59.5z M226.2,49.4h15.5
			c-0.7-4.6-4-6.7-7.4-6.7C229.9,42.7,226.8,45.4,226.2,49.4z"/>
		<path class="st0" d="M284.4,48.3v14.4h-4V48.4c0-3.7-2-5.6-5.1-5.6c-3.2,0-5.7,2-5.7,7v12.9h-4V48.4c0-3.7-1.9-5.6-4.9-5.6
			c-3.1,0-5.9,2-5.9,7v12.9h-4V39.6h4v3.1c1.7-2.6,4.1-3.7,6.9-3.7c3.1,0,5.5,1.4,6.8,3.9c1.6-2.6,4.3-3.9,7.3-3.9
			C280.9,38.9,284.4,42.5,284.4,48.3z"/>
		<path class="st0" d="M313.7,39.5v23.1h-4v-4c-1.9,2.8-4.8,4.6-8.7,4.6c-6.4,0-11.7-5.3-11.7-12.2c0-6.8,5.3-12.2,11.7-12.2
			c3.9,0,6.9,1.8,8.7,4.6v-4h4V39.5z M309.7,51.1c0-4.7-3.6-8.3-8.2-8.3s-8.2,3.6-8.2,8.3c0,4.7,3.6,8.3,8.2,8.3
			S309.7,55.8,309.7,51.1z"/>
		<path class="st0" d="M326.2,43.4v12.5c0,3.5,2,3.3,6.2,3.1v3.6c-6.9,0.9-10.2-0.9-10.2-6.7V43.4h-4.6v-3.9h4.6v-5.3l4-1.2v6.5h6.2
			v3.9H326.2z"/>
		<path class="st0" d="M336,32.6c0-1.5,1.2-2.7,2.7-2.7s2.7,1.2,2.7,2.7s-1.2,2.7-2.7,2.7C337.2,35.3,336,34.1,336,32.6z
			 M336.7,39.5h4v23.1h-4V39.5z"/>
		<path class="st0" d="M345.6,51.1c0-6.8,5.2-12.2,12.2-12.2c4.6,0,8.5,2.4,10.2,6.1l-3.4,1.9c-1.2-2.5-3.7-4.1-6.8-4.1
			c-4.6,0-8.1,3.6-8.1,8.2s3.5,8.2,8.1,8.2c3.1,0,5.7-1.6,7-4l3.4,2c-1.9,3.6-5.9,6-10.4,6C350.8,63.3,345.6,58,345.6,51.1z"/>
		<path class="st0" d="M395.5,39.5v23.1h-4v-4c-1.9,2.8-4.8,4.6-8.7,4.6c-6.4,0-11.7-5.3-11.7-12.2c0-6.8,5.3-12.2,11.7-12.2
			c3.9,0,6.9,1.8,8.7,4.6v-4h4V39.5z M391.4,51.1c0-4.7-3.6-8.3-8.2-8.3c-4.6,0-8.2,3.6-8.2,8.3c0,4.7,3.6,8.3,8.2,8.3
			C387.9,59.4,391.4,55.8,391.4,51.1z"/>
	</g>
	<g id="Progress_Together_2_">
		<path class="st0" d="M231.7,83.5c0,2.6-2,4.6-4.6,4.6h-3.3v5.1h-1.9V79h5.2C229.7,78.9,231.7,80.8,231.7,83.5z M229.8,83.5
			c0-1.6-1.2-2.8-2.7-2.8h-3.3v5.6h3.3C228.7,86.3,229.8,85.1,229.8,83.5z"/>
		<path class="st0" d="M238.8,82.8v1.9c-1.5-0.1-3.2,0.7-3.2,3.1v5.4h-1.8V83h1.8v1.7C236.3,83.2,237.5,82.8,238.8,82.8z"/>
		<path class="st0" d="M240,88c0-3,2.4-5.4,5.4-5.4s5.4,2.3,5.4,5.4c0,3-2.4,5.4-5.4,5.4S240,91,240,88z M249,88
			c0-2.1-1.6-3.6-3.6-3.6s-3.6,1.6-3.6,3.6s1.6,3.6,3.6,3.6C247.4,91.7,249,90.1,249,88z"/>
		<path class="st0" d="M263.4,82.9v9.7c0,3.2-2.5,4.8-5.2,4.8c-2.3,0-4-0.9-4.8-2.5l1.5-0.9c0.5,1,1.3,1.7,3.3,1.7
			c2.1,0,3.4-1.2,3.4-3.1v-1.4c-0.8,1.2-2.1,2-3.8,2c-2.9,0-5.2-2.3-5.2-5.3s2.3-5.3,5.2-5.3c1.7,0,3,0.8,3.8,2v-1.8L263.4,82.9
			L263.4,82.9z M261.7,88c0-2-1.6-3.6-3.6-3.6c-2.1,0-3.6,1.6-3.6,3.6c0,2.1,1.6,3.6,3.6,3.6S261.7,90,261.7,88z"/>
		<path class="st0" d="M271.5,82.8v1.9c-1.5-0.1-3.2,0.7-3.2,3.1v5.4h-1.7V83h1.8v1.7C269,83.2,270.2,82.8,271.5,82.8z"/>
		<path class="st0" d="M278.2,91.7c1.4,0,2.4-0.7,2.9-1.5l1.5,0.9c-0.9,1.4-2.4,2.3-4.5,2.3c-3.3,0-5.5-2.3-5.5-5.4
			c0-3,2.2-5.4,5.3-5.4c3.1,0,5.1,2.5,5.1,5.4c0,0.3,0,0.5-0.1,0.8h-8.5C274.9,90.7,276.3,91.7,278.2,91.7z M274.5,87.3h6.8
			c-0.3-2-1.8-3-3.3-3C276.1,84.3,274.8,85.5,274.5,87.3z"/>
		<path class="st0" d="M292.7,90.3c0,1.9-1.6,3.1-3.8,3.1c-2,0-3.5-1-4-2.4l1.5-0.9c0.3,1,1.3,1.6,2.5,1.6c1.1,0,2-0.4,2-1.4
			c0-2.2-5.7-0.9-5.7-4.6c0-1.8,1.5-3,3.6-3c1.7,0,3,0.8,3.7,2.1l-1.5,0.8c-0.4-0.9-1.3-1.3-2.2-1.3c-0.9,0-1.8,0.4-1.8,1.4
			C287,87.9,292.7,86.6,292.7,90.3z"/>
		<path class="st0" d="M302.4,90.3c0,1.9-1.6,3.1-3.8,3.1c-2,0-3.5-1-4-2.4l1.5-0.9c0.3,1,1.3,1.6,2.5,1.6c1.1,0,2-0.4,2-1.4
			c0-2.2-5.7-0.9-5.7-4.6c0-1.8,1.5-3,3.6-3c1.7,0,3,0.8,3.7,2.1l-1.5,0.8c-0.4-0.9-1.3-1.3-2.2-1.3c-0.9,0-1.8,0.4-1.8,1.4
			C296.7,87.9,302.4,86.6,302.4,90.3z"/>
		<path class="st0" d="M319.7,80.7h-4.2v12.5h-1.9V80.7h-4.2v-1.8h10.3V80.7z"/>
		<path class="st0" d="M319.7,88c0-3,2.4-5.4,5.4-5.4s5.4,2.3,5.4,5.4c0,3-2.4,5.4-5.4,5.4S319.7,91,319.7,88z M328.7,88
			c0-2.1-1.6-3.6-3.6-3.6s-3.6,1.6-3.6,3.6s1.6,3.6,3.6,3.6C327.1,91.7,328.7,90.1,328.7,88z"/>
		<path class="st0" d="M343.1,82.9v9.7c0,3.2-2.5,4.8-5.2,4.8c-2.3,0-4-0.9-4.8-2.5l1.5-0.9c0.5,1,1.3,1.7,3.3,1.7
			c2.1,0,3.4-1.2,3.4-3.1v-1.4c-0.8,1.2-2.1,2-3.8,2c-2.9,0-5.2-2.3-5.2-5.3s2.3-5.3,5.2-5.3c1.7,0,3,0.8,3.8,2v-1.8L343.1,82.9
			L343.1,82.9z M341.4,88c0-2-1.6-3.6-3.6-3.6c-2.1,0-3.6,1.6-3.6,3.6c0,2.1,1.6,3.6,3.6,3.6S341.4,90,341.4,88z"/>
		<path class="st0" d="M351.2,91.7c1.4,0,2.4-0.7,2.9-1.5l1.5,0.9c-0.9,1.4-2.4,2.3-4.5,2.3c-3.3,0-5.5-2.3-5.5-5.4
			c0-3,2.2-5.4,5.3-5.4s5.1,2.5,5.1,5.4c0,0.3,0,0.5-0.1,0.8h-8.5C347.9,90.7,349.3,91.7,351.2,91.7z M347.5,87.3h6.8
			c-0.3-2-1.7-3-3.3-3C349.1,84.3,347.8,85.5,347.5,87.3z"/>
		<path class="st0" d="M361.1,84.7v5.5c0,1.5,0.9,1.4,2.7,1.4v1.6c-3.1,0.4-4.5-0.4-4.5-3v-5.5h-2V83h2v-2.4l1.8-0.5v2.8h2.7v1.7
			h-2.7V84.7z"/>
		<path class="st0" d="M375.2,86.9v6.2h-1.8V87c0-1.7-1-2.6-2.5-2.6c-1.6,0-3,1-3,3.4v5.4h-1.8V79h1.8v5.5c0.8-1.2,1.9-1.7,3.3-1.7
			C373.7,82.7,375.2,84.3,375.2,86.9z"/>
		<path class="st0" d="M383.1,91.7c1.4,0,2.4-0.7,2.9-1.5l1.5,0.9c-0.9,1.4-2.4,2.3-4.5,2.3c-3.3,0-5.5-2.3-5.5-5.4
			c0-3,2.2-5.4,5.3-5.4s5.1,2.5,5.1,5.4c0,0.3,0,0.5-0.1,0.8h-8.5C379.8,90.7,381.2,91.7,383.1,91.7z M379.4,87.3h6.8
			c-0.3-2-1.8-3-3.3-3C381,84.3,379.7,85.5,379.4,87.3z"/>
		<path class="st0" d="M395.5,82.8v1.9c-1.5-0.1-3.2,0.7-3.2,3.1v5.4h-1.8V83h1.8v1.7C392.9,83.2,394.2,82.8,395.5,82.8z"/>
	</g>
	<g id="Registered_-_bottom_2_">
		<path class="st0" d="M409.7,58.2c0,2.6-2,4.6-4.6,4.6s-4.6-2-4.6-4.6s2-4.6,4.6-4.6C407.7,53.7,409.7,55.6,409.7,58.2z
			 M408.9,58.2c0-2.2-1.6-3.9-3.8-3.9s-3.9,1.7-3.9,3.9c0,2.2,1.6,3.9,3.8,3.9C407.3,62.1,408.9,60.4,408.9,58.2z M406.4,59.1
			l1.1,1.8h-1.1l-1-1.6h-0.1h-1v1.6h-1.1v-5.1h2.1c1.4,0,2.2,0.7,2.2,1.8C407.4,58.2,407.1,58.8,406.4,59.1z M405.2,58.4
			c0.7,0,1.1-0.3,1.1-0.9s-0.4-0.9-1.1-0.9h-1v1.8H405.2z"/>
	</g>
</g>
</svg>
