<?xml version="1.0" encoding="UTF-8"?><svg id="a" xmlns="http://www.w3.org/2000/svg" width="65.8" height="50" viewBox="0 0 65.8 50"><circle cx="2.25" cy="32" r="2.25" fill="#d02b28"/><circle cx="10.38" cy="18.48" r="2.25" transform="translate(-10.81 18.23) rotate(-60)" fill="#efb51d"/><circle cx="22.53" cy="12.48" r="2.25" transform="translate(-3.22 12.94) rotate(-30)" fill="#0c2949"/><path d="M47.93,50c-.13,0-.26-.06-.35-.17-.16-.19-.12-.48,.07-.63,5.24-4.22,8.24-10.49,8.24-17.2,0-12.18-9.91-22.08-22.08-22.08-1.63,0-3.27,.18-4.88,.55-.24,.05-.48-.1-.54-.34-.05-.24,.1-.48,.34-.54,1.68-.38,3.38-.57,5.08-.57,12.67,0,22.98,10.31,22.98,22.98,0,6.99-3.13,13.51-8.58,17.9-.08,.07-.18,.1-.28,.1Z"/><path d="M19.68,50c-.1,0-.2-.03-.28-.1-5.45-4.39-8.58-10.92-8.58-17.9,0-5.8,2.17-11.34,6.11-15.6,.17-.18,.45-.19,.64-.03,.18,.17,.19,.45,.03,.64-3.79,4.09-5.87,9.42-5.87,14.99,0,6.71,3,12.98,8.24,17.2,.19,.16,.22,.44,.07,.63-.09,.11-.22,.17-.35,.17Z"/><path d="M54.36,50c-.1,0-.21-.04-.29-.11-.19-.16-.21-.45-.05-.64,4.11-4.81,6.37-10.94,6.37-17.26,0-14.66-11.93-26.59-26.59-26.59-7.21,0-13.96,2.84-19.01,8.01-.17,.18-.46,.18-.64,0-.18-.17-.18-.46,0-.64,5.22-5.34,12.2-8.28,19.65-8.28,15.16,0,27.49,12.33,27.49,27.49,0,6.54-2.34,12.87-6.59,17.85-.09,.1-.22,.16-.34,.16Z"/><path d="M13.24,50c-.13,0-.25-.05-.34-.16-4.25-4.97-6.59-11.31-6.59-17.85,0-2.5,.34-5,1.02-7.42,.07-.24,.32-.38,.56-.31,.24,.07,.38,.32,.31,.56-.65,2.34-.99,4.76-.99,7.17,0,6.32,2.26,12.45,6.37,17.26,.16,.19,.14,.47-.05,.64-.08,.07-.19,.11-.29,.11Z"/><path d="M7.6,50c-.15,0-.29-.07-.37-.2-2.25-3.36-3.83-7.06-4.68-10.99-.05-.24,.1-.48,.35-.54,.24-.05,.48,.1,.54,.34,.83,3.82,2.36,7.41,4.55,10.68,.14,.21,.08,.49-.12,.62-.08,.05-.16,.08-.25,.08Z"/><path d="M60.01,50c-.09,0-.17-.02-.25-.08-.21-.14-.26-.42-.12-.62,3.44-5.13,5.26-11.11,5.26-17.3C64.9,14.85,50.95,.9,33.8,.9,19.27,.9,6.5,11.19,3.42,25.37c-.05,.24-.29,.4-.54,.34-.24-.05-.4-.29-.35-.54C5.71,10.59,18.85,0,33.8,0c17.64,0,32,14.35,32,32,0,6.37-1.87,12.53-5.41,17.8-.09,.13-.23,.2-.37,.2Z"/><g id="b"><path d="M37.62,31.15l-1.01,1.04c-.92,.79-1.41,1.98-1.32,3.19h-2.25v-.56c0-1.2,.47-2.34,1.32-3.19l1.4-1.42c.43-.42,.67-.99,.66-1.59,0-1.24-1.01-2.25-2.25-2.25s-2.25,1.01-2.25,2.25h-2.25c0-2.49,2.02-4.51,4.51-4.51s4.51,2.02,4.51,4.51c0,.95-.38,1.86-1.05,2.53m-2.33,8.73h-2.25v-2.25h2.25m-1.13-16.9c-6.22,0-11.27,5.04-11.27,11.27s5.04,11.27,11.27,11.27,11.27-5.04,11.27-11.27-5.04-11.27-11.27-11.27Z"/></g></svg>